<?xml version="1.0" encoding="UTF-8" standalone="no"?>
<svg
   id="logo"
   class="aspect-square w-1/3"
   version="1.1"
   viewBox="0 0 932.41547 997.18066"
   sodipodi:docname="logo-svg.svg"
   inkscape:version="1.4 (86a8ad7, 2024-10-11)"
   width="932.41547"
   height="997.18066"
   xmlns:inkscape="http://www.inkscape.org/namespaces/inkscape"
   xmlns:sodipodi="http://sodipodi.sourceforge.net/DTD/sodipodi-0.dtd"
   xmlns="http://www.w3.org/2000/svg"
   xmlns:svg="http://www.w3.org/2000/svg">
  <defs
     id="defs1" />
  <sodipodi:namedview
     id="namedview1"
     pagecolor="#ffffff"
     bordercolor="#000000"
     borderopacity="0.25"
     inkscape:showpageshadow="2"
     inkscape:pageopacity="0.0"
     inkscape:pagecheckerboard="0"
     inkscape:deskcolor="#d1d1d1"
     inkscape:zoom="1"
     inkscape:cx="728"
     inkscape:cy="329"
     inkscape:window-width="2117"
     inkscape:window-height="1148"
     inkscape:window-x="1023"
     inkscape:window-y="48"
     inkscape:window-maximized="0"
     inkscape:current-layer="logo" />
  <path
     id="path3"
     style="fill:none;fill-opacity:1;stroke:#16f275;stroke-width:12.6"
     d="m 817.86552,560.67545 -0.36566,-135.97617 m -237.66,-209.217 -151.84,-71.698 209.6,-88.444997 m 179.9,369.359997 108.31,-45.569 m -606.85434,-53.65 0.0116,522.99 m -0.0376,-522.99 4.4e-4,0.0174 108.98,51.144 m -108.97,-186.93 -0.0101,135.77 -102.54,42.75 m -107.28,-90.664 209.905,-87.8197 498.475,234.9523 M 6.2798687,229.58668 l 102.8099913,48.016 -0.0429,135.68 M 6.3769687,364.64568 6.3023087,229.31568 534.7323,6.8956824 l 102.89,48.4370006 0.28568,135.615167 -58.044,24.533 345.97,163.62 0.27306,135.45 -108.24152,46.1246 -89.90148,-42.2056 0.0377,426.38 -108.36,45.437 -102.67,-48.35917 v -523.18 l -89.069,-42.12 0.007,425.76 -108.95,46.04 -102.58,-48.464 v -431.72 l -107.35,45.037 z m 613.2647713,625.376 0.35112,-522.7694 107.97118,51.21757" />
</svg>
